<svg width="120" height="42" viewBox="0 0 120 42" fill="none" xmlns="http://www.w3.org/2000/svg">
<g clip-path="url(#clip0_729_1974)">
<mask id="mask0_729_1974" style="mask-type:luminance" maskUnits="userSpaceOnUse" x="7" y="7" width="29" height="28">
<path d="M28.3688 7H14.1844C10.2675 7 7.09222 10.134 7.09222 14V28C7.09222 31.866 10.2675 35 14.1844 35H28.3688C32.2857 35 35.461 31.866 35.461 28V14C35.461 10.134 32.2857 7 28.3688 7Z" fill="white"/>
</mask>
<g mask="url(#mask0_729_1974)">
<path d="M28.3688 7H14.1844C10.2675 7 7.09222 10.134 7.09222 14V28C7.09222 31.866 10.2675 35 14.1844 35H28.3688C32.2857 35 35.461 31.866 35.461 28V14C35.461 10.134 32.2857 7 28.3688 7Z" fill="#9FE29E"/>
<path fill-rule="evenodd" clip-rule="evenodd" d="M22.0447 23.8902C20.8128 31.3845 14.2389 36.8801 6.54653 36.8456L6.55775 34.3956C13.0284 34.4246 18.5584 29.8019 19.5945 23.4979L19.7941 22.2837H19.5704C14.4964 22.2837 10.0221 25.5661 8.55927 30.3615C6.74316 36.3149 1.11769 40.3346 -5.17968 40.1786L-7.99384 40.1089L-7.93152 37.6594L-5.11738 37.7294C0.0619822 37.8578 4.68873 34.5517 6.18238 29.6551C7.96097 23.8246 13.4011 19.8337 19.5704 19.8337H20.1968L20.5079 17.9413C21.7345 10.4788 28.3874 5.0778 36.0429 5.32983L35.9602 7.77847C29.553 7.56753 23.9847 12.0879 22.9582 18.3336L22.7115 19.8337H28.2941L26.6046 18.1663C26.1199 17.6879 26.1199 16.9123 26.6046 16.4339C27.0893 15.9555 27.8751 15.9555 28.3596 16.4339L32.2603 20.2839C32.7453 20.7623 32.7453 21.5379 32.2603 22.0163L28.3596 25.8663C27.8751 26.3446 27.0893 26.3446 26.6046 25.8663C26.1199 25.3879 26.1199 24.6123 26.6046 24.1339L28.4791 22.2837H22.3088L22.0447 23.8902Z" fill="#052B28"/>
</g>
<path d="M48.6919 19.8519H46.538V29.3688H43.3848V19.8519H41.9858V17.3587H43.3848V16.7517C43.3848 15.2776 43.8142 14.1936 44.6726 13.4999C45.5312 12.8062 46.8267 12.481 48.5587 12.5244V15.0825C47.8037 15.0681 47.2783 15.1908 46.9822 15.451C46.6858 15.7112 46.538 16.1809 46.538 16.8602V17.3587H48.6919V19.8519Z" fill="#052B28"/>
<path d="M52.2481 15.8864C51.6944 15.8864 51.2308 15.7196 50.8563 15.3861C50.4971 15.0382 50.3176 14.6105 50.3176 14.1032C50.3176 13.5957 50.4971 13.1753 50.8563 12.8419C51.2308 12.494 51.6944 12.32 52.2481 12.32C52.8021 12.32 53.2583 12.494 53.6174 12.8419C53.9917 13.1753 54.1787 13.5957 54.1787 14.1032C54.1787 14.6105 53.9917 15.0382 53.6174 15.3861C53.2583 15.7196 52.8021 15.8864 52.2481 15.8864ZM53.797 17.3215V29.3688H50.6543V17.3215H53.797Z" fill="#052B28"/>
<path d="M63.5555 17.1338C65.0034 17.1338 66.1735 17.591 67.0655 18.5053C67.9576 19.4053 68.4037 20.6679 68.4037 22.2935V29.3688H65.3323V22.707C65.3323 21.7491 65.0911 21.0162 64.6085 20.5082C64.1258 19.9857 63.4677 19.7245 62.6341 19.7245C61.7858 19.7245 61.1129 19.9857 60.6158 20.5082C60.1331 21.0162 59.8918 21.7491 59.8918 22.707V29.3688H56.8204V17.3079H59.8918V18.8101C60.3011 18.2876 60.8206 17.8812 61.4494 17.591C62.0931 17.2862 62.795 17.1338 63.5555 17.1338Z" fill="#052B28"/>
<path d="M78.0933 17.1825C79.0147 17.1825 79.8336 17.3849 80.5505 17.7897C81.2669 18.18 81.8228 18.7655 82.2177 19.5461C82.6271 20.3122 82.8319 21.2373 82.8319 22.3216V29.3688H79.7607V22.7335C79.7607 21.7794 79.5193 21.0494 79.0367 20.5435C78.554 20.0231 77.8959 19.7628 77.0623 19.7628C76.2137 19.7628 75.5411 20.0231 75.044 20.5435C74.5614 21.0494 74.32 21.7794 74.32 22.7335V29.3688H71.2488V13.3228H74.32V18.8521C74.7149 18.3317 75.2414 17.927 75.8996 17.6379C76.5577 17.3342 77.2888 17.1825 78.0933 17.1825Z" fill="#052B28"/>
<path d="M97.2603 17.3344V29.2186H94.1669V27.7169C93.7722 28.2318 93.253 28.6394 92.6093 28.9397C91.9807 29.2258 91.2932 29.3688 90.5472 29.3688C89.5969 29.3688 88.7557 29.1757 88.0244 28.7896C87.2933 28.3892 86.7156 27.81 86.2913 27.0519C85.8818 26.2797 85.677 25.3645 85.677 24.3061V17.3344H88.7484V23.8771C88.7484 24.821 88.9896 25.5504 89.4723 26.0652C89.9549 26.5657 90.613 26.816 91.4466 26.816C92.2952 26.816 92.9604 26.5657 93.4431 26.0652C93.9257 25.5504 94.1669 24.821 94.1669 23.8771V17.3344H97.2603Z" fill="#052B28"/>
<path d="M103.371 19.1143C103.765 18.5359 104.304 18.0659 104.99 17.7044C105.69 17.3429 106.484 17.1622 107.374 17.1622C108.409 17.1622 109.342 17.4152 110.174 17.9213C111.019 18.4274 111.683 19.1505 112.164 20.0904C112.66 21.0158 112.908 22.0931 112.908 23.3223C112.908 24.5515 112.66 25.6432 112.164 26.5976C111.683 27.5377 111.019 28.2678 110.174 28.7885C109.342 29.309 108.409 29.5693 107.374 29.5693C106.47 29.5693 105.675 29.3958 104.99 29.0487C104.319 28.6873 103.779 28.2244 103.371 27.6605V29.3741H100.309V13.3228H103.371V19.1143ZM109.78 23.3223C109.78 22.5992 109.627 21.9775 109.32 21.457C109.029 20.9219 108.635 20.517 108.139 20.2422C107.658 19.9675 107.133 19.83 106.564 19.83C106.01 19.83 105.485 19.9746 104.99 20.2639C104.508 20.5387 104.114 20.9436 103.808 21.4787C103.517 22.0136 103.371 22.6426 103.371 23.3657C103.371 24.0887 103.517 24.7178 103.808 25.2528C104.114 25.7879 104.508 26.2 104.99 26.4891C105.485 26.7639 106.01 26.9013 106.564 26.9013C107.133 26.9013 107.658 26.7567 108.139 26.4676C108.635 26.1783 109.029 25.7662 109.32 25.2311C109.627 24.6961 109.78 24.0598 109.78 23.3223Z" fill="#052B28"/>
</g>
<defs>
<clipPath id="clip0_729_1974">
<rect width="120" height="42" fill="white"/>
</clipPath>
</defs>
</svg>
